<svg xmlns="http://www.w3.org/2000/svg" viewBox="0 0 128 128" width="128" height="128">
  <defs>
    <linearGradient id="bg-sf1" x1="0%" y1="0%" x2="100%" y2="100%">
      <stop offset="0%" stop-color="#4a148c"/>
      <stop offset="100%" stop-color="#7b1fa2"/>
    </linearGradient>
    <linearGradient id="skinsf1" x1="0%" y1="0%" x2="0%" y2="100%">
      <stop offset="0%" stop-color="#f8d3b8"/>
      <stop offset="100%" stop-color="#e8b28f"/>
    </linearGradient>
  </defs>
  <circle cx="64" cy="64" r="64" fill="url(#bg-sf1)"/>
  <path d="M34 50 C32 80, 36 100, 44 110 L84 110 C92 100, 96 80, 94 50 Z" fill="#2d1c15"/>
  <path d="M22 128 C24 104, 42 94, 64 94 C86 94, 104 104, 106 128 Z" fill="#fed56f"/>
  <rect x="55" y="70" width="18" height="24" rx="4" fill="url(#skinsf1)"/>
  <ellipse cx="64" cy="58" rx="20" ry="24" fill="url(#skinsf1)"/>
  <path d="M40 50 C38 28, 54 22, 64 22 C76 22, 90 28, 88 50 C82 36, 74 32, 64 34 C54 32, 46 36, 40 50 Z" fill="#3d271d"/>
  <ellipse cx="44" cy="62" rx="3.5" ry="6" fill="url(#skinsf1)"/>
  <circle cx="44" cy="66" r="2" fill="#fed56f"/>
  <ellipse cx="84" cy="62" rx="3.5" ry="6" fill="url(#skinsf1)"/>
  <circle cx="84" cy="66" r="2" fill="#fed56f"/>
  <ellipse cx="55" cy="58" rx="2.5" ry="3.5" fill="#231815"/>
  <ellipse cx="73" cy="58" rx="2.5" ry="3.5" fill="#231815"/>
  <path d="M51 52 Q55 49 59 51" stroke="#2d1c15" stroke-width="2" stroke-linecap="round" fill="none"/>
  <path d="M69 51 Q73 49 77 52" stroke="#2d1c15" stroke-width="2" stroke-linecap="round" fill="none"/>
  <path d="M64 59 L62 65 L66 65" stroke="#cca282" stroke-width="2" stroke-linecap="round" fill="none"/>
  <path d="M57 73 Q64 78 71 73" stroke="#c04e5d" stroke-width="2.5" stroke-linecap="round" fill="none"/>
</svg>
