<svg xmlns="http://www.w3.org/2000/svg" viewBox="0 0 128 128" width="128" height="128">
  <defs>
    <linearGradient id="bg-sm2" x1="0%" y1="0%" x2="100%" y2="100%">
      <stop offset="0%" stop-color="#1b5e20"/>
      <stop offset="100%" stop-color="#2e7d32"/>
    </linearGradient>
    <linearGradient id="skinsm2" x1="0%" y1="0%" x2="0%" y2="100%">
      <stop offset="0%" stop-color="#f0be97"/>
      <stop offset="100%" stop-color="#d89669"/>
    </linearGradient>
  </defs>
  <circle cx="64" cy="64" r="64" fill="url(#bg-sm2)"/>
  <path d="M20 128 C22 102, 40 92, 64 92 C88 92, 106 102, 108 128 Z" fill="#2c4a6e"/>
  <path d="M48 94 L64 128 L80 94 Z" fill="#ffffff"/>
  <rect x="54" y="68" width="20" height="26" rx="4" fill="url(#skinsm2)"/>
  <ellipse cx="64" cy="56" rx="22" ry="26" fill="url(#skinsm2)"/>
  <ellipse cx="42" cy="58" rx="4" ry="7" fill="url(#skinsm2)"/>
  <ellipse cx="86" cy="58" rx="4" ry="7" fill="url(#skinsm2)"/>
  <path d="M42 46 C42 26, 56 18, 70 20 C82 22, 88 28, 86 44 C84 34, 76 28, 64 28 C52 28, 44 36, 42 46 Z" fill="#18181b"/>
  <ellipse cx="54" cy="56" rx="2.5" ry="3.5" fill="#18181b"/>
  <ellipse cx="74" cy="56" rx="2.5" ry="3.5" fill="#18181b"/>
  <path d="M49 49 Q54 46 59 49" stroke="#18181b" stroke-width="2.5" stroke-linecap="round" fill="none"/>
  <path d="M69 49 Q74 46 79 49" stroke="#18181b" stroke-width="2.5" stroke-linecap="round" fill="none"/>
  <path d="M64 57 L62 64 L66 64" stroke="#bc7d50" stroke-width="2" stroke-linecap="round" fill="none"/>
  <path d="M57 72 Q64 77 71 72" stroke="#98532f" stroke-width="2.5" stroke-linecap="round" fill="none"/>
</svg>
