<svg xmlns="http://www.w3.org/2000/svg" viewBox="0 0 128 128" width="128" height="128">
  <defs>
    <linearGradient id="bg-sm1" x1="0%" y1="0%" x2="100%" y2="100%">
      <stop offset="0%" stop-color="#004d40"/>
      <stop offset="100%" stop-color="#00695c"/>
    </linearGradient>
    <linearGradient id="skinsm1" x1="0%" y1="0%" x2="0%" y2="100%">
      <stop offset="0%" stop-color="#f5caa7"/>
      <stop offset="100%" stop-color="#e0a379"/>
    </linearGradient>
  </defs>
  <circle cx="64" cy="64" r="64" fill="url(#bg-sm1)"/>
  <path d="M20 128 C22 102, 40 92, 64 92 C88 92, 106 102, 108 128 Z" fill="#f0f3ff"/>
  <path d="M52 92 L64 108 L76 92 L70 92 L64 100 L58 92 Z" fill="#123356"/>
  <rect x="54" y="70" width="20" height="24" rx="4" fill="url(#skinsm1)"/>
  <ellipse cx="64" cy="56" rx="22" ry="26" fill="url(#skinsm1)"/>
  <ellipse cx="42" cy="58" rx="4" ry="7" fill="url(#skinsm1)"/>
  <ellipse cx="86" cy="58" rx="4" ry="7" fill="url(#skinsm1)"/>
  <path d="M42 50 C40 30, 52 22, 66 22 C80 22, 88 30, 86 50 C82 42, 76 38, 64 38 C52 38, 46 42, 42 50 Z" fill="#241c18"/>
  <rect x="46" y="50" width="15" height="12" rx="3" fill="none" stroke="#123356" stroke-width="2.5"/>
  <rect x="67" y="50" width="15" height="12" rx="3" fill="none" stroke="#123356" stroke-width="2.5"/>
  <line x1="61" y1="56" x2="67" y2="56" stroke="#123356" stroke-width="2.5"/>
  <line x1="42" y1="55" x2="46" y2="55" stroke="#123356" stroke-width="2"/>
  <line x1="82" y1="55" x2="86" y2="55" stroke="#123356" stroke-width="2"/>
  <circle cx="53.5" cy="56" r="2.5" fill="#1e293b"/>
  <circle cx="74.5" cy="56" r="2.5" fill="#1e293b"/>
  <path d="M47 46 Q53 43 59 46" stroke="#241c18" stroke-width="2.5" stroke-linecap="round" fill="none"/>
  <path d="M69 46 Q75 43 81 46" stroke="#241c18" stroke-width="2.5" stroke-linecap="round" fill="none"/>
  <path d="M64 59 L62 65 L66 65" stroke="#c4875c" stroke-width="2" stroke-linecap="round" fill="none"/>
  <path d="M56 73 Q64 79 72 73" stroke="#a65d38" stroke-width="2.5" stroke-linecap="round" fill="none"/>
</svg>
